# xmcd
#
# Track frame offsets:
#	150
#	20313
#	43534
#	64034
#	88166
#	109747
#	131268
#	154454
#	171893
#	192381
#
# Disc length: 2871 seconds
#
# Revision: 1
# Processed by: cddbd v1.5.1PL0 Copyright (c) Steve Scherf et al.
# Submitted via: audiograbber 1.80
#
DISCID=810b350a
DTITLE=Duy Manh - Tinh Em La Dai Duong
DYEAR=1900
DGENRE=
TTITLE0=Xin Duoc Hoai Mong
TTITLE1=Hay Ve Day Ben Anh
TTITLE2=Ta Mang On Em
TTITLE3=Kiep Do Den
TTITLE4=Tinh Em La Dai Duong
TTITLE5=Ta Dau Co Say
TTITLE6=Van Mai Yeu Em
TTITLE7=Loi Cua Trai Tim
TTITLE8=Ngay Mai Em Di ft. Hien Thuc
TTITLE9=Con Se Khong Quen
EXTD=
EXTT0=
EXTT1=
EXTT2=
EXTT3=
EXTT4=
EXTT5=
EXTT6=
EXTT7=
EXTT8=
EXTT9=
PLAYORDER=
